<svg width="40" height="40" viewBox="0 0 40 40" fill="none" xmlns="http://www.w3.org/2000/svg">
<path d="M6.66668 33.3333C5.75001 33.3333 4.96529 33.0069 4.31251 32.3541C3.65973 31.7013 3.33334 30.9166 3.33334 30V9.99996C3.33334 9.08329 3.65973 8.29857 4.31251 7.64579C4.96529 6.99301 5.75001 6.66663 6.66668 6.66663H33.3333C34.25 6.66663 35.0347 6.99301 35.6875 7.64579C36.3403 8.29857 36.6667 9.08329 36.6667 9.99996V30C36.6667 30.9166 36.3403 31.7013 35.6875 32.3541C35.0347 33.0069 34.25 33.3333 33.3333 33.3333H6.66668ZM20 21.6666L6.66668 13.3333V30H33.3333V13.3333L20 21.6666ZM20 18.3333L33.3333 9.99996H6.66668L20 18.3333ZM6.66668 13.3333V9.99996V30V13.3333Z" fill="#F6E8F5"/>
</svg>
