<svg width="42" height="43" viewBox="0 0 42 43" fill="none" xmlns="http://www.w3.org/2000/svg">
<g filter="url(#filter0_d_127_18)">
<path d="M21 35L18.5833 32.8333C15.7778 30.3055 13.4583 28.125 11.625 26.2916C9.79168 24.4583 8.33334 22.8194 7.25001 21.375C6.16668 19.9027 5.40279 18.5555 4.95834 17.3333C4.54168 16.1111 4.33334 14.8611 4.33334 13.5833C4.33334 10.9722 5.20834 8.79163 6.95834 7.04163C8.70834 5.29163 10.8889 4.41663 13.5 4.41663C14.9445 4.41663 16.3195 4.72218 17.625 5.33329C18.9306 5.9444 20.0556 6.80552 21 7.91663C21.9445 6.80552 23.0695 5.9444 24.375 5.33329C25.6806 4.72218 27.0556 4.41663 28.5 4.41663C31.1111 4.41663 33.2917 5.29163 35.0417 7.04163C36.7917 8.79163 37.6667 10.9722 37.6667 13.5833C37.6667 14.8611 37.4445 16.1111 37 17.3333C36.5833 18.5555 35.8333 19.9027 34.75 21.375C33.6667 22.8194 32.2083 24.4583 30.375 26.2916C28.5417 28.125 26.2222 30.3055 23.4167 32.8333L21 35ZM21 30.5C23.6667 28.1111 25.8611 26.0694 27.5833 24.375C29.3056 22.6527 30.6667 21.1666 31.6667 19.9166C32.6667 18.6389 33.3611 17.5139 33.75 16.5416C34.1389 15.5416 34.3333 14.5555 34.3333 13.5833C34.3333 11.9166 33.7778 10.5277 32.6667 9.41663C31.5556 8.30552 30.1667 7.74996 28.5 7.74996C27.1945 7.74996 25.9861 8.12496 24.875 8.87496C23.7639 9.59718 23 10.5277 22.5833 11.6666H19.4167C19 10.5277 18.2361 9.59718 17.125 8.87496C16.0139 8.12496 14.8056 7.74996 13.5 7.74996C11.8333 7.74996 10.4445 8.30552 9.33334 9.41663C8.22223 10.5277 7.66668 11.9166 7.66668 13.5833C7.66668 14.5555 7.86112 15.5416 8.25001 16.5416C8.6389 17.5139 9.33334 18.6389 10.3333 19.9166C11.3333 21.1666 12.6945 22.6527 14.4167 24.375C16.1389 26.0694 18.3333 28.1111 21 30.5Z" fill="#F6E8F5"/>
</g>
<defs>
<filter id="filter0_d_127_18" x="-3" y="0" width="48" height="48" filterUnits="userSpaceOnUse" color-interpolation-filters="sRGB">
<feFlood flood-opacity="0" result="BackgroundImageFix"/>
<feColorMatrix in="SourceAlpha" type="matrix" values="0 0 0 0 0 0 0 0 0 0 0 0 0 0 0 0 0 0 127 0" result="hardAlpha"/>
<feOffset dy="4"/>
<feGaussianBlur stdDeviation="2"/>
<feComposite in2="hardAlpha" operator="out"/>
<feColorMatrix type="matrix" values="0 0 0 0 0 0 0 0 0 0 0 0 0 0 0 0 0 0 0.25 0"/>
<feBlend mode="normal" in2="BackgroundImageFix" result="effect1_dropShadow_127_18"/>
<feBlend mode="normal" in="SourceGraphic" in2="effect1_dropShadow_127_18" result="shape"/>
</filter>
</defs>
</svg>
