<svg width="40" height="40" viewBox="0 0 42 43" fill="none" xmlns="http://www.w3.org/2000/svg">
<g filter="url(#filter0_d_10_71)">
<path d="M21 35L18.5833 32.8333C15.7778 30.3056 13.4583 28.125 11.625 26.2917C9.79165 24.4583 8.33331 22.8194 7.24998 21.375C6.16665 19.9028 5.40276 18.5556 4.95831 17.3333C4.54165 16.1111 4.33331 14.8611 4.33331 13.5833C4.33331 10.9722 5.20831 8.79166 6.95831 7.04166C8.70831 5.29166 10.8889 4.41666 13.5 4.41666C14.9444 4.41666 16.3194 4.72222 17.625 5.33333C18.9305 5.94444 20.0555 6.80555 21 7.91667C21.9444 6.80555 23.0694 5.94444 24.375 5.33333C25.6805 4.72222 27.0555 4.41666 28.5 4.41666C31.1111 4.41666 33.2916 5.29166 35.0416 7.04166C36.7916 8.79166 37.6666 10.9722 37.6666 13.5833C37.6666 14.8611 37.4444 16.1111 37 17.3333C36.5833 18.5556 35.8333 19.9028 34.75 21.375C33.6667 22.8194 32.2083 24.4583 30.375 26.2917C28.5417 28.125 26.2222 30.3056 23.4166 32.8333L21 35ZM21 30.5C23.6666 28.1111 25.8611 26.0694 27.5833 24.375C29.3055 22.6528 30.6666 21.1667 31.6667 19.9167C32.6667 18.6389 33.3611 17.5139 33.75 16.5417C34.1389 15.5417 34.3333 14.5556 34.3333 13.5833C34.3333 11.9167 33.7778 10.5278 32.6666 9.41667C31.5555 8.30555 30.1667 7.75 28.5 7.75C27.1944 7.75 25.9861 8.125 24.875 8.875C23.7639 9.59722 23 10.5278 22.5833 11.6667H19.4166C19 10.5278 18.2361 9.59722 17.125 8.875C16.0139 8.125 14.8055 7.75 13.5 7.75C11.8333 7.75 10.4444 8.30555 9.33331 9.41667C8.2222 10.5278 7.66665 11.9167 7.66665 13.5833C7.66665 14.5556 7.86109 15.5417 8.24998 16.5417C8.63887 17.5139 9.33331 18.6389 10.3333 19.9167C11.3333 21.1667 12.6944 22.6528 14.4166 24.375C16.1389 26.0694 18.3333 28.1111 21 30.5Z" fill="#651D60"/>
</g>
</svg>
