<svg width="40" height="40" viewBox="0 0 40 40" fill="none" xmlns="http://www.w3.org/2000/svg">
<path d="M6.66665 33.3333C5.74998 33.3333 4.96526 33.0069 4.31248 32.3542C3.6597 31.7014 3.33331 30.9167 3.33331 30V10C3.33331 9.08333 3.6597 8.29861 4.31248 7.64583C4.96526 6.99306 5.74998 6.66667 6.66665 6.66667H33.3333C34.25 6.66667 35.0347 6.99306 35.6875 7.64583C36.3403 8.29861 36.6666 9.08333 36.6666 10V30C36.6666 30.9167 36.3403 31.7014 35.6875 32.3542C35.0347 33.0069 34.25 33.3333 33.3333 33.3333H6.66665ZM20 21.6667L6.66665 13.3333V30H33.3333V13.3333L20 21.6667ZM20 18.3333L33.3333 10H6.66665L20 18.3333ZM6.66665 13.3333V10V30V13.3333Z" fill="#651D60"/>
</svg>